<svg xmlns="http://www.w3.org/2000/svg" viewBox="0 0 66.7 52.2"><defs><style>.a{fill:#dbac64;}</style></defs><path class="a" d="M29.11,52.2h-14v-.72a20.86,20.86,0,0,0,3.6-.72,7.46,7.46,0,0,0,3.38-2.38,2.36,2.36,0,0,0,.54-1.18,16.65,16.65,0,0,0,.29-1.88c.07-.69.12-1.45.15-2.26s0-1.61,0-2.38,0-1.56,0-2.66.05-2.33.07-3.68,0-2.73,0-4.17V2.23H18.5c-.62,0-1.28,0-2,0s-1.5,0-2.41,0A16.41,16.41,0,0,0,9.61,3,8.68,8.68,0,0,0,6.34,5,9.87,9.87,0,0,0,5,6.48c-.5.67-1,1.4-1.58,2.2a28.39,28.39,0,0,0-1.58,2.55A15.44,15.44,0,0,0,.65,13.9L0,13.68,2.16,0c1.1.24,2.12.43,3.06.58A34.45,34.45,0,0,0,9.29.86c1.82.05,3.45.09,4.89.11S17,1,18.36,1H29.2"/><path class="a" d="M34.64,51a16.46,16.46,0,0,0,4.13.27c1.63,0,3.44-.12,5.33-.12.81,0,1.84,0,3.1-.07a37.82,37.82,0,0,0,3.94-.35,15.83,15.83,0,0,0,4.19-1.1A14.9,14.9,0,0,0,59,47.3a23.45,23.45,0,0,0,3.45-3.66,51.41,51.41,0,0,0,3.45-5.22l.78.21L63.15,52.2H34.64m.09-26.71h1.42c.71,0,1.52,0,2.45-.08s1.85-.1,2.77-.17a16.29,16.29,0,0,0,2.31-.32,12.3,12.3,0,0,0,3.55-1.35,7.84,7.84,0,0,0,2.31-2.06A10,10,0,0,0,51,18.7a31.83,31.83,0,0,0,1-3.59h.85V37.49h-.85a24.55,24.55,0,0,0-1.74-4.69,12.53,12.53,0,0,0-2.45-3.62A9.35,9.35,0,0,0,45,27.55a12.23,12.23,0,0,0-3.73-.79l-1.77-.1c-.48,0-1,0-1.42,0H34.8M35,1H59.52l4.83,11.73-.71.35Q57.9,6,52.84,3.46a17.31,17.31,0,0,0-4.47-1,63.81,63.81,0,0,0-8-.42c-1,0-2,0-3.09.1s-1.84.16-2.31.25"/></svg>